<svg xmlns="http://www.w3.org/2000/svg" viewBox="0 0 1312.37 1214.93"><defs><style>.cls-1{isolation:isolate;}.cls-2{fill:#f6f8fa;}.cls-11,.cls-12,.cls-13,.cls-14,.cls-15,.cls-16,.cls-19,.cls-2,.cls-21,.cls-31,.cls-32,.cls-33{mix-blend-mode:multiply;}.cls-17,.cls-3{opacity:0.5;}.cls-4{fill:#557ceb;}.cls-5{fill:#d1dff3;}.cls-6{fill:#dbbaaf;}.cls-13,.cls-16,.cls-7{fill:#663f18;}.cls-8{fill:#669ead;}.cls-9{fill:#333;}.cls-10{fill:#292e38;}.cls-11,.cls-15{opacity:0.2;}.cls-12{opacity:0.15;}.cls-13,.cls-19{opacity:0.08;}.cls-14,.cls-35{opacity:0.1;}.cls-15,.cls-17{fill:#f0f;}.cls-16{opacity:0.23;}.cls-18{fill:#b2c9ea;}.cls-20,.cls-36{fill:none;}.cls-21,.cls-51{opacity:0.05;}.cls-22{fill:#3a332e;}.cls-23{fill:#423c38;}.cls-24{fill:#eed7cb;}.cls-25{fill:#937869;}.cls-26{fill:#e59d3e;}.cls-27{fill:#365070;}.cls-28{fill:#476ba0;}.cls-29{fill:#25384f;}.cls-30{fill:#8e6c55;}.cls-31{opacity:0.25;}.cls-32{opacity:0.09;}.cls-33{opacity:0.04;}.cls-34{fill:#e5c1b3;}.cls-36{stroke:#fff;stroke-linecap:round;stroke-linejoin:round;stroke-width:2px;}.cls-37{fill:#f46767;}.cls-38,.cls-43{fill:#fff;}.cls-38{fill-rule:evenodd;}.cls-39{fill:#ffc91d;}.cls-40{fill:#ffde1d;}.cls-41{fill:#6d3e1d;}.cls-42{fill:#162147;}.cls-44{fill:#c6843c;}.cls-45{fill:#4ca1ed;}.cls-46{fill:#c7d7f0;}.cls-47{fill:#f2f2f2;}.cls-48{fill:#bdcce4;}.cls-49{fill:#d9d9d9;}.cls-50{fill:#a9b7cc;}</style></defs><title>home_illustration</title><g class="cls-1"><g id="Layer_2" data-name="Layer 2"><g id="Layer_1-2" data-name="Layer 1"><path class="cls-2" d="M302.41,788.12c32.31-34.76,87.35-118.66,130.18-115.26s85.3,8.44,92.27-37.94,67.39-73.24,65.48-100.41S630.1,459.44,654,461.23s56.71,1.95,54.42-38.32-28-68.24-56.32-67.42S564.42,423.6,550.64,416s-81-12-104.23,4.22S387.16,502,371,519.75s-93.68,76.09-144.76,115.39S136.63,717,103.6,751.58,34.76,826.39,34.83,860.2C35,965.87,174.52,925.67,302.41,788.12Z"/><g class="cls-3"><path class="cls-4" d="M445.34,590.31c-5.42,3.88-10.95,7.61-16.54,11.24a.18.18,0,1,1-.2-.3h0c5.64-3.56,11.22-7.21,16.69-11a0,0,0,0,1,.07,0A.05.05,0,0,1,445.34,590.31Z"/><path class="cls-4" d="M420.34,606.9c-5.68,3.48-11.44,6.84-17.3,10a.28.28,0,0,1-.39-.12.28.28,0,0,1,.11-.39h0c5.86-3.15,11.63-6.48,17.32-9.92a.24.24,0,1,1,.25.41Z"/><path class="cls-4" d="M394.17,621.56a190.33,190.33,0,0,1-18.32,8.08.36.36,0,0,1-.47-.21.35.35,0,0,1,.21-.47h0a187.7,187.7,0,0,0,18.3-8,.32.32,0,0,1,.42.14A.33.33,0,0,1,394.17,621.56Z"/><path class="cls-4" d="M366.3,632.72a60.23,60.23,0,0,1-9.89,1.83,47.37,47.37,0,0,1-5.05.13c-1.67,0-3.35-.13-5-.29a.45.45,0,1,1,.08-.89h0c1.64.17,3.3.27,4.95.31a43.14,43.14,0,0,0,5-.09A59.13,59.13,0,0,0,366.1,632a.39.39,0,0,1,.2.76Z"/><path class="cls-4" d="M336.48,632.29a23.51,23.51,0,0,1-8.65-5.2,20.4,20.4,0,0,1-5.16-8.64.34.34,0,0,1,.22-.43.36.36,0,0,1,.43.22,19.55,19.55,0,0,0,5,8.31,22.73,22.73,0,0,0,8.39,5,.42.42,0,0,1-.26.79Z"/><path class="cls-4" d="M321.25,608.51c-.11-6.72.91-13.34,1.58-20a.22.22,0,1,1,.44,0c-.62,6.64-1.58,13.26-1.42,19.9a.3.3,0,0,1-.29.31.29.29,0,0,1-.31-.29Z"/><path class="cls-4" d="M323.24,578.6a21.56,21.56,0,0,0-.82-4.88,10.29,10.29,0,0,0-2.43-4.24A9.87,9.87,0,0,0,315.8,567c-1.56-.52-3.24-.58-4.88-1h0a.19.19,0,1,1,.09-.37h0c1.6.39,3.29.46,4.91,1a10.39,10.39,0,0,1,4.31,2.6,11.2,11.2,0,0,1,2.5,4.36,21.43,21.43,0,0,1,.88,5,.18.18,0,0,1-.17.19.17.17,0,0,1-.19-.16Z"/><path class="cls-4" d="M301.9,561.71a18,18,0,0,1-5.27-8.51,31.49,31.49,0,0,1-1.13-10,.34.34,0,0,1,.68,0h0a30.55,30.55,0,0,0,1,9.81,17.43,17.43,0,0,0,5,8.31.24.24,0,0,1,0,.33A.23.23,0,0,1,301.9,561.71Z"/><path class="cls-4" d="M296.83,533.25a96.09,96.09,0,0,1,6.48-19,.48.48,0,0,1,.88.4h0a100,100,0,0,0-6.59,18.74.4.4,0,0,1-.47.3A.39.39,0,0,1,296.83,533.25Z"/><path class="cls-4" d="M307.82,505.31a100.76,100.76,0,0,1,11.29-16.6.52.52,0,0,1,.73,0,.51.51,0,0,1,.05.73,105.13,105.13,0,0,0-11.18,16.42.51.51,0,0,1-.89-.5Z"/><path class="cls-4" d="M326.3,481.67c1.29-1.08,2.48-2.17,3.66-3.35s2.32-2.37,3.44-3.59a98.66,98.66,0,0,0,6.29-7.7.49.49,0,0,1,.79.58,90.93,90.93,0,0,1-6.34,7.79c-1.12,1.25-2.27,2.46-3.46,3.65s-2.45,2.34-3.71,3.4h0a.51.51,0,0,1-.65-.79Z"/><path class="cls-4" d="M345,458.64a37.93,37.93,0,0,0,3.5-9.21,19.94,19.94,0,0,0,0-9.71.37.37,0,0,1,.26-.46.37.37,0,0,1,.46.26,20.72,20.72,0,0,1,.12,10.08,39.14,39.14,0,0,1-3.51,9.46.45.45,0,0,1-.81-.41Z"/><path class="cls-4" d="M343.24,431.59a25.16,25.16,0,0,0-4-2.9c-1.41-.86-2.93-1.55-4.4-2.36a53.46,53.46,0,0,1-8.37-5.54.26.26,0,0,1,.32-.4,53,53,0,0,0,8.33,5.41c1.46.8,3,1.48,4.44,2.34a26.31,26.31,0,0,1,4.11,2.94.34.34,0,0,1-.45.51Z"/><path class="cls-4" d="M320.1,413.07a12.65,12.65,0,0,1-1.19-4.9,12.1,12.1,0,0,1,.88-4.95,20.28,20.28,0,0,1,6-7.9.06.06,0,0,1,.09,0,.05.05,0,0,1,0,.08,20.17,20.17,0,0,0-5.87,7.91,11.75,11.75,0,0,0-.79,4.83,12.23,12.23,0,0,0,1.22,4.74.21.21,0,0,1-.09.28.22.22,0,0,1-.29-.1Z"/></g><path class="cls-5" d="M396.33,285.49l-25.61,91.32a5.89,5.89,0,0,1-2.78,3.52L258.35,441.15a7.31,7.31,0,0,1-2.89.89l26.79-95.52A5.85,5.85,0,0,1,285,343l.56-.32L393.17,283A2.18,2.18,0,0,1,396.33,285.49Z"/><path class="cls-6" d="M163.8,200.51l-12.54,11.28-62.52-18c1.47-.54,2.75-1,3.82-1.52A3.16,3.16,0,0,0,94.39,190l6.44-32.67c4.42,13,10.84,18.3,17.48,22.74,7.22,4.83,22.85,10.39,37.57,4.57h0a11,11,0,0,0,1.8,11.59C159.57,198.39,161.81,200.35,163.8,200.51Z"/><path class="cls-7" d="M76.24,899.87c-22.14-3.16-19.86-29-15.49-46.85.22-1,.47-5,.71-9.88a22.69,22.69,0,0,0,3.59,1c8.49,1.65,22.1.74,29.28-4l.43-.3c-.16,6.25-.09,14.4,1.31,20.06C99.76,874.82,104.26,903.86,76.24,899.87Z"/><path class="cls-7" d="M193.79,849.68c-12.42-1.79-39.36-34.44-45.56-41.38a10.21,10.21,0,0,1-2.51-9,20.44,20.44,0,0,1,3-7.16,18.44,18.44,0,0,0,2.44,1.62c8.51,4.79,18.74,7.69,28.27,9.51,2.59.5,6.11.8,8.78-.21a47.82,47.82,0,0,0,2.13,4.53,61.26,61.26,0,0,0,11.28,14.77C220.09,840.66,207.86,851.7,193.79,849.68Z"/><path class="cls-8" d="M222.67,588.67c-3.75,35.5-12.4,70.4-19.64,105.47-5.41,26.2-10.05,52.5-11.27,79.2-.27,5.68.53,11.45.64,17.18a43.32,43.32,0,0,1-.48,8.05,5.51,5.51,0,0,1-3.73,4.48c-2.67,1-6.19.71-8.79.21-9.53-1.82-19.75-4.71-28.26-9.5a18.44,18.44,0,0,1-2.44-1.63c-4.44-3.51-4-7.51-3.65-13.9.52-8.34,1.39-16.66,2.29-25,2.38-22,5-44,8.15-65.88,2.71-19.1,5.55-38.13,8.75-57.13A178.15,178.15,0,0,0,166.66,609c.21-4.54,1.07-11.58-1.72-15.59-6.41-9.15-32.29-57.53-37.81-66.36l-.53-.78a113.62,113.62,0,0,0-3.28,12.52c-6.56,31.81-8.58,87.34-8.58,104s-8.59,66.63-15.65,105.49,1,71.14,0,84.79a7.88,7.88,0,0,1-1.66,4.27,11.45,11.45,0,0,1-2.67,2.5l-.43.3c-7.18,4.69-20.79,5.6-29.28,4a22.69,22.69,0,0,1-3.59-1l-.4-.16a7.16,7.16,0,0,1-2.85-1.83c-5.05-6.07-17.68-58-11.12-113.57s8.59-101.45-2-163.54C35.17,505.91,31,495.13,42.5,446.76a10,10,0,0,0,5.38,2.35c4.79.71,9.58,1.44,14.35,2.28l2.05.37,2.71.51,2.72.54,1,.19h0a246.7,246.7,0,0,0,51.83,5.14l.94,0c.5,0,1,0,1.42,0l1.89,0c3.36-.09,6.64-.21,9.78-.41.41,0,.83,0,1.21-.06l2.75-.18c.87-.07,1.74-.13,2.58-.21l2.35-.2c.85-.09,1.65-.17,2.45-.23l1.21-.13,2.35-.25c.8-.08,1.58-.19,2.36-.28.57-.06,1.12-.12,1.68-.21s.9-.1,1.34-.17l.85-.1c.57-.06,1.13-.15,1.67-.23,3.72-.51,7.15-1,10.24-1.55.61-.08,1.21-.19,1.8-.29l1.35-.22c.33-.06.65-.13,1-.16,1.1-.2,2.15-.37,3.13-.53.49-.09.95-.15,1.4-.24l1.58-.25.41-.07.53-.08.59-.08c.93-.15,1.75-.28,2.51-.36l.54-.07a4.07,4.07,0,0,1,.5,0,51.6,51.6,0,0,0,9.6-1.91C204.58,474.7,222.26,549.89,224.27,564,225.47,572.32,223.54,580.49,222.67,588.67Z"/><path class="cls-9" d="M194.49,449.58a50.1,50.1,0,0,1-9.59,1.9l-.5,0a5.33,5.33,0,0,0-.54.07c-.76.08-1.6.21-2.51.34l-.59.09-.54.09a3.2,3.2,0,0,0-.41.07c-.51.07-1,.16-1.58.25l-1.38.23-3.14.52-1,.17-1.34.22c-.59.11-1.19.2-1.81.3-3.09.5-6.51,1-10.23,1.54-.55.08-1.11.16-1.67.22l-.85.12-1.34.17-1.67.21-2.39.27-2.34.25-1.2.12-2.44.23c-.78.07-1.57.15-2.37.21l-2.57.2-2.74.19-1.21.07c-3.15.18-6.42.32-9.8.39l-1.88,0-1.41,0h-1A245.59,245.59,0,0,1,70.65,453c-7.54-1.58-15.15-2.78-22.78-3.9a9.93,9.93,0,0,1-5.37-2.36c-3.13-2.95-4.07-9.19,2.58-22,4.46-8.63,8.87-26.61,12.81-47.87,8.14.55,19.72,1.93,32.32,3.61l2,.27c4.26.57,8.62,1.17,13,1.78l3,.42,2.4.34,2,.29c7.52,1.06,14.92,2.1,21.73,3l1.84.26,4.82.65,1.38.18,1.49.19.8.11,3.59.45,1.87.24,3.12.37,1.36.15,2.54.27.44,0,1.83.18.58.05.52,0,1,.08.68.05.56,0,1.51.07h.42a16.26,16.26,0,0,0,1.65,0l.54-.07a5.21,5.21,0,0,1,.69-.1,10.26,10.26,0,0,1,1.92,0c.17,0,.34,0,.5.06h.06l.45.07a19.44,19.44,0,0,1,4.47,1.47c6.12,2.75,13.11,8.33,21,12.09l.4.19c.62.29,1.25.56,1.9.82,1.5,12.92,3.11,25.66,3.46,30.07s.53,7.49.69,8.49C203,446.06,204,446.7,194.49,449.58Z"/><path class="cls-10" d="M211.07,297.56c-.41,1.65-1.41,3.53-6.9,3.73-.77,4.71-2.7,17.17-4.55,30.68-1.29,9.46-2.55,19.44-3.35,27.66a129.88,129.88,0,0,0-.85,14.59c-.49.13-1,.27-1.44.43s-.72.23-1.07.35a25.31,25.31,0,0,1-15,.35c-5.49-1.55-14.28-4.3-28.32-9.18-47.38-16.48-72.77-25.1-85.29-29.3,2-13.91,3.61-27.7,4.91-40a15.82,15.82,0,0,1-5.94.67c-7.57-1-28.77-10.61-41.89-11.11a83.58,83.58,0,0,1-11.58-1.19c-7.91-1.45-12.86-4.2-7.61-8.4,7.58-6.05,18.17-54,30.8-66.63,10.9-10.91,42.56-17.29,57.13-21.75l61.49,21.24,13.12-10.59c7.57,1,18.17.51,31.8,10.09s15.65,38.36,14.14,60.07S211.68,295.11,211.07,297.56Z"/><path class="cls-11" d="M65.83,377.54A211.08,211.08,0,0,1,47.18,420c3.74-9.62,7.4-25.21,10.72-43.13l.9.06.3,0,1,.07,1,.09,1.56.13Z"/><path class="cls-12" d="M211.07,297.56c-.41,1.65-1.4,3.53-6.89,3.73,0,0,0,0,0,0v0a120.4,120.4,0,0,0,1.93-18.4c0-2-.08-4.08-.21-6.09a134.14,134.14,0,0,0-4.33-25.2s4.87-.32,6.72-8.94a39,39,0,0,0,.67-9.55c2.32,11.47,2.49,24.78,1.7,36.15C209.13,291,211.68,295.11,211.07,297.56Z"/><path class="cls-13" d="M163.8,200.51l-12.54,11.27c-4.92-6.87-11.6-17.11-3.7-25a35,35,0,0,0,8.32-2.16,11,11,0,0,0-.89,5,10,10,0,0,0,.3,2,10.8,10.8,0,0,0,2.39,4.61C159.57,198.39,161.81,200.35,163.8,200.51Z"/><path class="cls-12" d="M202.38,442.31c0-.23,0-.49-.06-.77C202.34,441.82,202.36,442.08,202.38,442.31Z"/><path class="cls-12" d="M202.44,442.88a4.17,4.17,0,0,1-.06-.57Q202.41,442.64,202.44,442.88Z"/><path class="cls-12" d="M202.46,443.09a.34.34,0,0,1,0-.1.36.36,0,0,1,0,.1c.1.58.22,1.07.27,1.51C202.68,444.16,202.56,443.67,202.46,443.09Z"/><path class="cls-14" d="M217.91,533.67v0C196.28,462.79,181.35,452,181.35,452l.32-.05.35-.06.35-.06.28,0,.29,0,.18,0,.75-.09.52-.06.51,0a50.36,50.36,0,0,0,9.6-1.9h0C201.22,466.33,211.32,505.33,217.91,533.67Z"/><path class="cls-12" d="M93.63,895.76a21.12,21.12,0,0,0,1.13-16.57c-2.94-9.52-12.27-18-6.84-36.22h0a24.46,24.46,0,0,0,6.41-2.82l.44-.3c-.16,6.25-.1,14.4,1.31,20.06v0C98.65,870.34,101.62,887.64,93.63,895.76Z"/><path class="cls-12" d="M97.54,837.2l-.1.14c-.09.12-.18.24-.28.35.09-.11.19-.23.27-.35A1.34,1.34,0,0,0,97.54,837.2Z"/><path class="cls-12" d="M205.55,847.93c4.45-4.17,1.49-13.24-2.16-17.11-2.31-2.45-13.7-7.13-16.22-9.79a69.55,69.55,0,0,1-12.89-18.84h0c1.71.39,3.42.75,5.11,1.08,2.6.5,6.12.79,8.79-.22a46.66,46.66,0,0,0,2.13,4.54,62.07,62.07,0,0,0,11.27,14.76c.6.6,1.16,1.17,1.69,1.75C214.14,835.79,212.18,844.27,205.55,847.93Z"/><path class="cls-14" d="M191.75,773.35a2.64,2.64,0,0,1,0-.28,2.62,2.62,0,0,1,0,.28c0,.39,0,.79,0,1.2C191.72,774.14,191.74,773.74,191.75,773.35Z"/><path class="cls-14" d="M192.42,791.81c0-.43,0-.86,0-1.29,0-.59,0-1.19-.05-1.79,0,.6.05,1.2.06,1.79C192.42,791,192.42,791.37,192.42,791.81Z"/><path class="cls-15" d="M204.17,301.29v0c-.77,4.73-2.7,17.16-4.54,30.64h0c-1.29,9.46-2.55,19.44-3.35,27.66h0a132.72,132.72,0,0,0-.86,14.58c-.49.13-1,.28-1.44.44s-.72.23-1.07.35l-.82.27-.16.05-.2.05h-.09a25.48,25.48,0,0,1-13.75,0l-.29-.07c.12-1.17.29-2.38.5-3.64C181.37,352,203.21,308.05,204.17,301.29Z"/><path class="cls-11" d="M75.18,340.55l-10.89-3.68c1.94-13.91,3.6-27.7,4.9-40a15.57,15.57,0,0,1-5.94.66A48.47,48.47,0,0,1,56,295.63c11.9-5.52,5.35-20,15.88-44C81.48,265.14,82.42,301.69,75.18,340.55Z"/><path class="cls-12" d="M92.56,346.48l-2.49-.85,2.1.7Z"/><path class="cls-12" d="M176.44,374.94l-.39-.11.11,0Z"/><path class="cls-12" d="M191.64,375.4l.06,0h-.06Z"/><path class="cls-12" d="M191.73,375.37l.36-.1-.16.05Z"/><path class="cls-16" d="M163.69,180.33c-.31.23-.63.46-1,.67-.65.45-1.31.87-2,1.26-.26.16-.53.31-.79.45-.86.49-1.73.92-2.6,1.31l-.62.27-.87.36a35,35,0,0,1-8.32,2.16h0c4.07-4,7.66-7.47,10.8-10.6,6.88-6.86,11.55-12.28,14.17-19.34a99,99,0,0,0,3.26-10.37v0c2.12-2.47,4-4.65,5.43-4.64a1.1,1.1,0,0,1,.25,0,1.63,1.63,0,0,1,.71.35,3.31,3.31,0,0,1,.84,1.19C186.22,150.15,180.33,168.14,163.69,180.33Z"/><path class="cls-16" d="M181.38,95.56c-.1-4.82,0-8.57,0-8.57,12.19-.51,31-8.44,28.62-29.56h0a.22.22,0,0,1,.09-.1.32.32,0,0,1,.22-.13h.09a.52.52,0,0,1,.24.05.85.85,0,0,1,.27.18C214.24,60.52,219.63,92.36,181.38,95.56Z"/><path class="cls-7" d="M210.59,57.24a.48.48,0,0,0-.33,0A.43.43,0,0,1,210.59,57.24Z"/><path class="cls-17" d="M186.94,398.4l.08.05c-.28-.17-.56-.33-.83-.51h0C186.43,398.08,186.68,398.25,186.94,398.4Z"/><path class="cls-17" d="M168.63,372.55l-1.7-.54-.46-.15Z"/><path class="cls-17" d="M191.93,375.32l-.2.05.36-.1Z"/><path class="cls-17" d="M182.37,451.78l.28,0-.63.09Z"/><path class="cls-11" d="M202.76,445.23a1.05,1.05,0,0,1,0,.24,2.17,2.17,0,0,1-.07.24,0,0,0,0,0,0,0,1.91,1.91,0,0,1-.28.49s0,0,0,0l-.23.24c-.92.85-3,1.72-7.62,3.12h0a50.36,50.36,0,0,1-9.6,1.9l-.51,0-.52.06-.75.09c14.13-2.84,9.63-19.18,5.43-34.18-2.85-10.21-6.9-16.49-9.3-23.84.58.32,1.16.67,1.75,1a.75.75,0,0,0,.17.1l3,1.86c.67.41,1.34.85,2,1.28h0l.75.46.08.05c.79.5,1.6,1,2.42,1.49l.83.49.16.09c.41.26.82.49,1.25.72l.94.54.07,0,.4.23h0l.31.16.83.44,1.77.88.39.19c.63.28,1.26.56,1.91.82.1.81.19,1.61.29,2.42s.19,1.6.28,2.4c.3,2.59.61,5.13.9,7.55q.1.92.21,1.8c.14,1.17.28,2.32.41,3.42.06.56.13,1.09.19,1.63s.15,1.28.22,1.89c.11.93.21,1.81.31,2.63s.18,1.6.25,2.32c.19,1.68.32,3.05.4,4,0,.54.1,1.06.14,1.56s.08,1,.12,1.44c.12,1.6.21,2.95.29,3.94,0,.28,0,.54.06.77a4.17,4.17,0,0,0,.06.57s0,.08,0,.11a.34.34,0,0,0,0,.1A10.43,10.43,0,0,1,202.76,445.23Z"/><path class="cls-18" d="M285.6,342.68,285,343a5.83,5.83,0,0,0-2.79,3.51l-1.85,6.6-17.75,63.26-2.94,10.5L255.46,442a7.24,7.24,0,0,1-3.49-.55h0l-18.56-8-.84-.36-54.12-23.37h0l-13.83-6a2.18,2.18,0,0,1-.2-3.91l108.46-60.19a5.82,5.82,0,0,1,5.13-.26Z"/><polygon class="cls-12" points="280.4 353.11 262.65 416.37 232.53 433.09 178.41 409.71 280.4 353.11"/><polygon class="cls-11" points="262.66 416.37 259.71 426.87 241.52 436.97 233.37 433.45 232.53 433.09 262.65 416.37 262.66 416.37"/><path class="cls-6" d="M256.58,362.13a24.38,24.38,0,0,1-23.53-9.85h0c-.41.05-23.81,4-36.78,7.35.8-8.22,2.06-18.2,3.35-27.66,5.88.85,17.64,5.39,27.68,2.4,13.38-4,21.37-2.67,27.26,0a23.65,23.65,0,0,1,2.81,1.51c4.24,2.62,7.55,6.44,8.8,10.61C267.68,351.53,270.71,360.12,256.58,362.13Z"/><path class="cls-6" d="M219.88,399c-1.82,9.27-12.76,9-21.57,5.49-.65-.26-1.28-.53-1.9-.82l-.4-.19c-7.89-3.76-14.88-9.34-21-12.09a19.44,19.44,0,0,0-4.47-1.47l-.45-.07H170c-.16,0-.33,0-.5-.06a10.26,10.26,0,0,0-1.92,0,5.21,5.21,0,0,0-.69.1l-.54.07a16.26,16.26,0,0,1-1.65,0h-.42L162.8,390l-.56,0-.68-.05-1-.08-.52,0-.58-.05-1.83-.18-.44,0-1.9-.2h0l-.63-.07-1.36-.15-3.12-.37-1.87-.24-3.59-.45-.8-.11-1.49-.19-1.38-.18-4.82-.65-1.84-.26c-6.81-.94-14.21-2-21.73-3l-2-.29-2.4-.34-3-.42c-4.37-.61-8.73-1.21-13-1.78l-2-.27c-12.6-1.68-24.18-3.06-32.32-3.61a56.36,56.36,0,0,0-9.78-.09C23,380.12,11.57,325,9.78,285.23a83.58,83.58,0,0,0,11.58,1.19c13.12.5,34.32,10.1,41.89,11.11a15.82,15.82,0,0,0,5.94-.67c-1.3,12.31-3,26.1-4.91,40,12.52,4.2,37.91,12.82,85.29,29.3,14,4.88,22.83,7.63,28.32,9.18a25.31,25.31,0,0,0,15-.35c.35-.12.7-.24,1.07-.35s1-.3,1.44-.43a26.22,26.22,0,0,1,6.79-1.13c6.56-.16,12.95,3,16.51,14.79C220.15,392.58,220.43,396.24,219.88,399Z"/><path class="cls-19" d="M191.64,375.4a4.58,4.58,0,0,1-.49.15,42.54,42.54,0,0,1-13.7,1.26c-11.84-.6-28.16-4.87-52.58-14.41-23.42-9.16-41-11.32-51-15.16-6-2.27-9.25-5.13-9.57-10.37l10.89,3.68,1.44.48c.48.18,1,.34,1.48.51s1,.34,1.51.52l.14,0,1.21.41,1.61.55.22.07.93.32,1.92.66,1,.33,1.06.37c.79.26,1.58.54,2.39.82l2.49.85.26.09c.77.25,1.55.52,2.34.8l4.08,1.4,2.86,1,2.65.91c7.32,2.52,15.6,5.37,25,8.62l2.6.9,2.5.86,3.54,1.23,11.22,3.9,1.3.45,1.27.44,2.21.76,1.59.54c.53.18,1,.37,1.54.53s1,.34,1.49.5l.49.16c2.27.76,4.35,1.45,6.26,2.07l.75.24.46.15,1.7.54c2.9.92,5.35,1.67,7.42,2.28l.39.11.38.11.78.23.29.07A25.48,25.48,0,0,0,191.64,375.4Z"/><path class="cls-19" d="M233.05,352.29h-.13l-.18,0-.25,0a2.69,2.69,0,0,1-.36.06l-1,.17c-.24,0-.51.08-.79.14h-.13l-.39.07-.11,0-.65.11-.7.12-2.36.42-.18,0-.56.1-.25.05-1.95.35-2.31.42-2.83.53c-1.92.36-3.93.75-5.95,1.16l-1.52.3-1.52.31c-2,.41-4,.85-5.94,1.27-2.41.54-4.7,1.09-6.73,1.62h0c.8-8.22,2.06-18.2,3.35-27.66h0l.42.07.91.17.48.09,1,.23.35.07c.33,5.5,1.78,9,3.87,11.2,4.95,5.22,13.48,3.33,19.58,3.9C229.55,348,232.12,349,233.05,352.29Z"/><path class="cls-14" d="M114.76,639v0c0,1.41,0,2.67,0,3.76,0,16.64-8.58,66.62-15.64,105.49-5.46,30.06-1.87,56.19-.43,72.79a82.52,82.52,0,0,1,.43,12,8,8,0,0,1-.21,1.31c0,.14-.08.28-.12.42a4.29,4.29,0,0,1-.19.54,3.61,3.61,0,0,1-.21.49.54.54,0,0,1,0,.11,3.24,3.24,0,0,1-.17.32,3.79,3.79,0,0,1-.2.34,3.83,3.83,0,0,1-.28.42.94.94,0,0,1-.12.18,1.34,1.34,0,0,1-.11.14c-.08.12-.18.24-.27.35a12.47,12.47,0,0,1-2.39,2.15l-.44.3A24.46,24.46,0,0,1,87.92,843c2.54-8.8-2.06-13.8-.9-50.83s18.7-102.94,27.76-154.66A10.78,10.78,0,0,0,114.76,639Z"/><path class="cls-14" d="M114.78,637.47c0,.53,0,1,0,1.52A10.78,10.78,0,0,1,114.78,637.47Z"/><path class="cls-14" d="M166.67,609c.2-4.54,1.07-11.59-1.73-15.59-.35-.51-.78-1.14-1.24-1.88l-.6-.95-1.4-2.29-.77-1.29c-1.68-2.83-3.66-6.27-5.8-10.06q-.69-1.19-1.38-2.43c-.47-.83-.93-1.67-1.42-2.51-.71-1.28-1.44-2.57-2.17-3.88-.48-.88-1-1.76-1.48-2.65l-2.23-4c-.25-.44-.5-.89-.74-1.34l-1.33-2.39-3.83-6.91q-1.44-2.61-2.82-5.08l-1.34-2.42-1.3-2.32c-.31-.57-.62-1.14-.93-1.68l-2.58-4.6c-.54-.94-1-1.83-1.5-2.65-.32-.54-.62-1.06-.89-1.54l-.8-1.37c-.5-.83-.92-1.54-1.26-2.09a2.22,2.22,0,0,1-.15-.23l-.14-.2-.24-.36a79.08,79.08,0,0,0,3.51-25.82s2.51,5.9,6.34,14.61c9.82,22.36,28.34,63.33,35.43,71.37,9.64,10.9-10.31,120.83-22.56,149.16,0,0,0-.06,0-.08q2.79-24.1,6.16-48.15c2.62-18.44,5.36-36.85,8.43-55.22.11-.63.22-1.27.32-1.9.3-1.75.57-3.51.83-5.27s.49-3.54.7-5.31C166.18,616.11,166.5,612.56,166.67,609Z"/><path class="cls-14" d="M192.4,790.52c0,.43,0,.86,0,1.29s0,1.14,0,1.7l0,.84c0,.23,0,.47-.05.7a3.71,3.71,0,0,1,0,.47c0,.33-.05.67-.09,1s-.07.63-.11,1a.43.43,0,0,1,0,0s0,.05,0,.07c0,.32-.09.64-.14,1s-.08.38-.12.56h0v0a4.47,4.47,0,0,1-.2.65,6,6,0,0,1-.34.72,5,5,0,0,1-.9,1.18,2.74,2.74,0,0,1-.36.32,1.39,1.39,0,0,1-.19.15,4.2,4.2,0,0,1-.49.33,4.44,4.44,0,0,1-.53.28,5.26,5.26,0,0,1-.59.26c-2.67,1-6.19.72-8.79.22-1.69-.33-3.4-.69-5.11-1.08,13.64.24,11.09-63.72,27.06-99.77-4.64,23.29-8.44,46.65-9.56,70.35a2.83,2.83,0,0,0,0,.3,2.64,2.64,0,0,0,0,.28c0,.39,0,.79,0,1.2s0,.85,0,1.28,0,1.16,0,1.75,0,1.2.07,1.8c0,.32,0,.66,0,1v0c0,.46.05.91.08,1.37.06,1.08.14,2.15.21,3.23,0,.1,0,.21,0,.32.08,1.08.14,2.17.18,3.26,0,0,0,.1,0,.15C192.37,789.33,192.39,789.93,192.4,790.52Z"/><path class="cls-19" d="M69.19,296.86c-1.3,12.31-3,26.1-4.9,40C62.09,301.29,56,295.63,56,295.63h0a48.47,48.47,0,0,0,7.29,1.89A15.57,15.57,0,0,0,69.19,296.86Z"/><path class="cls-20" d="M1017.1,893.91l0,0"/><path class="cls-21" d="M954.6,1093.34l2.62,2.26Z"/><path class="cls-21" d="M954.6,1093.34l2.62,2.26Z"/><g class="cls-3"><path class="cls-4" d="M1312.36,298.29c-2.72,6.09-5.63,12.09-8.6,18.06a.1.1,0,1,1-.17-.09h0c3-5.95,5.93-11.94,8.68-18a.05.05,0,0,1,.07,0A.06.06,0,0,1,1312.36,298.29Z"/><path class="cls-4" d="M1299.22,325.26q-4.6,8.88-9.47,17.62a.15.15,0,0,1-.21.06.16.16,0,0,1-.07-.22h0q4.9-8.72,9.55-17.57a.11.11,0,0,1,.15,0A.12.12,0,0,1,1299.22,325.26Z"/><path class="cls-4" d="M1284.83,351.59q-5,8.67-10.23,17.19a.22.22,0,1,1-.38-.24h0q5.28-8.49,10.3-17.14a.18.18,0,1,1,.31.19Z"/><path class="cls-4" d="M1269.29,377.25q-5.38,8.42-11,16.65a.26.26,0,0,1-.36.07.27.27,0,0,1-.06-.36h0q5.67-8.22,11.06-16.62a.24.24,0,0,1,.33-.07A.23.23,0,0,1,1269.29,377.25Z"/><path class="cls-4" d="M1252.5,402.09q-5.84,8.15-12,16a.3.3,0,0,1-.4.05.28.28,0,0,1-.05-.4h0q6.15-7.87,12-16a.27.27,0,0,1,.38-.06A.27.27,0,0,1,1252.5,402.09Z"/><path class="cls-4" d="M1234.29,426q-6.33,7.76-13,15.19a.32.32,0,0,1-.44,0,.31.31,0,0,1,0-.44h0q6.72-7.39,13-15.14a.3.3,0,0,1,.46.37Z"/><path class="cls-4" d="M1214.43,448.46c-4.62,4.81-9.39,9.49-14.33,14a.33.33,0,0,1-.47,0,.32.32,0,0,1,0-.47h0c4.93-4.48,9.7-9.14,14.32-13.93a.32.32,0,1,1,.46.44Z"/><path class="cls-4" d="M1192.58,469.05c-5.11,4.3-10.4,8.39-15.88,12.2a.36.36,0,1,1-.41-.59h0c5.47-3.79,10.74-7.86,15.84-12.14a.34.34,0,0,1,.49,0A.36.36,0,0,1,1192.58,469.05Z"/><path class="cls-4" d="M1168.33,486.75a155.29,155.29,0,0,1-17.68,9.45.39.39,0,0,1-.51-.2.39.39,0,0,1,.19-.51h0a153.73,153.73,0,0,0,17.6-9.37.37.37,0,0,1,.51.12A.38.38,0,0,1,1168.33,486.75Z"/><path class="cls-4" d="M1141.36,500a112.65,112.65,0,0,1-19.37,5.15.42.42,0,1,1-.14-.82h0a111.28,111.28,0,0,0,19.24-5.08.4.4,0,0,1,.27.75Z"/><path class="cls-4" d="M1112,506.31a95.94,95.94,0,0,1-20-.71.44.44,0,1,1,.12-.87h0a95.6,95.6,0,0,0,19.86.74.41.41,0,0,1,.45.39A.42.42,0,0,1,1112,506.31Z"/><path class="cls-4" d="M1082.12,503.69c-3.25-.79-6.45-1.84-9.62-2.85l-9.52-3h0a.43.43,0,0,1-.28-.54.42.42,0,0,1,.54-.28l9.54,3,4.77,1.5c1.59.48,3.19.91,4.8,1.32a.44.44,0,0,1,.32.54A.46.46,0,0,1,1082.12,503.69Z"/><path class="cls-4" d="M1053.41,494.93q-9.59-2.82-19.26-5.34a.42.42,0,0,1-.29-.49.4.4,0,0,1,.49-.29q9.69,2.49,19.3,5.31a.41.41,0,0,1,.28.52.43.43,0,0,1-.52.29Z"/><path class="cls-4" d="M1024.45,487.16c-6.47-1.55-13-3-19.52-4.25a.36.36,0,0,1-.29-.43.37.37,0,0,1,.43-.3c6.55,1.26,13.08,2.68,19.57,4.22a.39.39,0,1,1-.18.76Z"/><path class="cls-4" d="M995.1,481.13c-6.57-1.09-13.17-2-19.8-2.68a.34.34,0,0,1,.07-.67c6.64.65,13.26,1.56,19.85,2.64a.36.36,0,0,1,.29.42.35.35,0,0,1-.41.29Z"/><path class="cls-4" d="M965.35,477.64a192.59,192.59,0,0,0-20-.2.31.31,0,0,1-.32-.3.3.3,0,0,1,.3-.32,188.32,188.32,0,0,1,20,.17.32.32,0,0,1,.31.34.32.32,0,0,1-.35.31Z"/><path class="cls-4" d="M935.45,478.23A102.65,102.65,0,0,0,916,482.31a.27.27,0,0,1-.35-.18.26.26,0,0,1,.18-.34,103.35,103.35,0,0,1,19.59-4.15.3.3,0,1,1,.07.59Z"/><path class="cls-4" d="M906.69,486a57.6,57.6,0,0,0-16.24,11.35.24.24,0,1,1-.34-.34,57.9,57.9,0,0,1,16.36-11.48.26.26,0,0,1,.35.12.27.27,0,0,1-.13.35Z"/><path class="cls-4" d="M884.15,505a60.58,60.58,0,0,0-8,18.13.21.21,0,1,1-.4-.1,61,61,0,0,1,8.07-18.28.23.23,0,0,1,.32-.07.24.24,0,0,1,.06.32Z"/><path class="cls-4" d="M874.15,532.91c-.22,1.65-.4,3.3-.54,5s-.2,3.32-.3,5l-.54,10a.18.18,0,0,1-.18.17.19.19,0,0,1-.17-.19l.52-10c.1-1.66.15-3.33.29-5s.31-3.33.54-5a.19.19,0,0,1,.22-.17.19.19,0,0,1,.16.22Z"/><path class="cls-4" d="M872.09,562.83a34.05,34.05,0,0,1-2.28,9.74,19.85,19.85,0,0,1-2.53,4.34,24.38,24.38,0,0,1-3.5,3.61.17.17,0,0,1-.22,0,.17.17,0,0,1,0-.23h0a23.69,23.69,0,0,0,3.46-3.55,19.3,19.3,0,0,0,2.51-4.27,34.22,34.22,0,0,0,2.23-9.66.16.16,0,0,1,.17-.14.16.16,0,0,1,.15.17Z"/><path class="cls-4" d="M855.39,586a196.12,196.12,0,0,1-18.28,8.15.19.19,0,0,1-.24-.1.2.2,0,0,1,.1-.25h0a194.42,194.42,0,0,0,18.26-8.09.17.17,0,0,1,.23.06A.17.17,0,0,1,855.39,586Z"/><path class="cls-4" d="M827.79,597.77l-18.71,7.07a.21.21,0,0,1-.27-.13.21.21,0,0,1,.12-.27h0l18.72-7a.2.2,0,0,1,.26.11A.21.21,0,0,1,827.79,597.77Z"/><path class="cls-4" d="M799.72,608.35a57.64,57.64,0,0,0-17.27,9.73.25.25,0,0,1-.34,0,.24.24,0,0,1,0-.33h0a57.72,57.72,0,0,1,17.43-9.77.21.21,0,0,1,.28.13A.21.21,0,0,1,799.72,608.35Z"/><path class="cls-4" d="M775.76,625.39a35.44,35.44,0,0,0-4.47,8.83,38.87,38.87,0,0,0-1.92,9.72.27.27,0,1,1-.53,0h0a38.89,38.89,0,0,1,2-9.84,35.75,35.75,0,0,1,4.54-8.95.25.25,0,0,1,.35-.06A.24.24,0,0,1,775.76,625.39Z"/><path class="cls-4" d="M769.73,653.85a70.11,70.11,0,0,0,5.65,19,.3.3,0,0,1-.55.25h0a70.58,70.58,0,0,1-5.65-19.2.28.28,0,1,1,.55-.07Z"/><path class="cls-4" d="M779.94,681.74a104.34,104.34,0,0,0,11.63,16.15.34.34,0,1,1-.5.45h0a104.57,104.57,0,0,1-11.66-16.29.31.31,0,0,1,.11-.43A.32.32,0,0,1,779.94,681.74Z"/><path class="cls-4" d="M798.53,705a70.13,70.13,0,0,0,7.76,6.21,40.17,40.17,0,0,0,8.72,4.65.38.38,0,0,1-.25.71h0a40.94,40.94,0,0,1-8.87-4.76,71.85,71.85,0,0,1-7.83-6.29.35.35,0,0,1,.48-.52Z"/><path class="cls-4" d="M824.55,716.63a8.4,8.4,0,0,0,3.9-2.66,13.07,13.07,0,0,0,2.28-4.24,23.71,23.71,0,0,0,1-4.8c.19-1.64.22-3.3.3-5v0a.42.42,0,0,1,.44-.39.41.41,0,0,1,.39.43h0c-.09,1.67-.12,3.34-.32,5a24.09,24.09,0,0,1-1.06,5,14,14,0,0,1-2.44,4.5,10.68,10.68,0,0,1-1.93,1.75,10.34,10.34,0,0,1-2.34,1.14.39.39,0,0,1-.49-.24.39.39,0,0,1,.24-.5Z"/><path class="cls-4" d="M831.39,690.1c-.64-3.2-1.72-6.42-3.9-8.81a10.47,10.47,0,0,0-3.91-2.69,13.08,13.08,0,0,0-4.73-.86.45.45,0,1,1,0-.9,13.89,13.89,0,0,1,5,.92,11.41,11.41,0,0,1,4.24,2.94,14.58,14.58,0,0,1,2.68,4.36,25.51,25.51,0,0,1,1.41,4.89.43.43,0,0,1-.34.5.44.44,0,0,1-.5-.34Z"/><path class="cls-4" d="M809.24,679.64a89.31,89.31,0,0,0-17.6,9.18.45.45,0,1,1-.5-.76h0a89.59,89.59,0,0,1,17.8-9.27.43.43,0,0,1,.57.27.45.45,0,0,1-.27.58Z"/><path class="cls-4" d="M783.43,694.49c-5.38,3.91-10.59,8.06-15.7,12.34a.46.46,0,1,1-.59-.71h0c5.12-4.28,10.35-8.44,15.75-12.37a.45.45,0,0,1,.64.1A.46.46,0,0,1,783.43,694.49Z"/><path class="cls-4" d="M760.15,713.33q-7.5,6.6-14.76,13.47a.48.48,0,0,1-.66,0,.46.46,0,0,1,0-.66h0q7.28-6.87,14.79-13.48a.47.47,0,0,1,.66,0A.45.45,0,0,1,760.15,713.33Z"/><path class="cls-4" d="M738.17,733.7,724,747.79h0a.47.47,0,0,1-.67-.67h0l14.2-14.1a.48.48,0,0,1,.67,0,.47.47,0,0,1,0,.67Z"/><path class="cls-4" d="M717,755l-13.75,14.52h0a.48.48,0,1,1-.7-.66h0l13.77-14.52a.48.48,0,0,1,.69.66Z"/><path class="cls-4" d="M696.48,776.81,683.1,791.66h0a.48.48,0,1,1-.72-.64h0l13.41-14.86a.48.48,0,0,1,.71.64Z"/><path class="cls-4" d="M676.49,799.16a165.78,165.78,0,0,0-12.36,15.64.49.49,0,1,1-.8-.55h0a165.46,165.46,0,0,1,12.43-15.73.49.49,0,0,1,.68,0A.5.5,0,0,1,676.49,799.16Z"/><path class="cls-4" d="M658.85,823.24c-1.64,2.89-3.11,5.86-4.66,8.83a31.68,31.68,0,0,1-2.62,4.34,12.6,12.6,0,0,1-3.87,3.43.48.48,0,0,1-.67-.19.5.5,0,0,1,.19-.68,11.53,11.53,0,0,0,3.56-3.15,31.15,31.15,0,0,0,2.54-4.21c1.53-2.94,3-6,4.68-8.85a.49.49,0,0,1,.67-.19A.5.5,0,0,1,658.85,823.24Z"/><path class="cls-4" d="M637.91,842.45c-3.33.39-6.67.61-10,.77s-6.67.28-10,.39a.49.49,0,0,1,0-1c3.33-.11,6.66-.24,10-.41s6.64-.38,9.93-.77a.49.49,0,0,1,.12,1Z"/><path class="cls-4" d="M607.88,843.77A79,79,0,0,1,588,841.13a.44.44,0,1,1,.23-.84,78.51,78.51,0,0,0,19.67,2.55.47.47,0,0,1,.46.47.47.47,0,0,1-.47.46Z"/><path class="cls-4" d="M578.6,837.53a46.52,46.52,0,0,1-8.46-5.47A53.15,53.15,0,0,1,563,825a.38.38,0,0,1,0-.55.39.39,0,0,1,.55,0,51,51,0,0,0,7,7,45.11,45.11,0,0,0,8.31,5.35.42.42,0,0,1,.19.57.42.42,0,0,1-.56.19Z"/><path class="cls-4" d="M557.11,816.83c-3.62-5.63-6.75-11.52-10.17-17.23a.35.35,0,0,1,.6-.36c3.45,5.72,6.59,11.6,10.2,17.18a.38.38,0,0,1-.11.53.38.38,0,0,1-.52-.11Z"/><path class="cls-4" d="M541.53,791.23A67.82,67.82,0,0,0,528,776.75a.31.31,0,1,1,.37-.49,68.34,68.34,0,0,1,13.73,14.58.32.32,0,0,1-.07.46.34.34,0,0,1-.47-.07Z"/><path class="cls-4" d="M519.65,771.3c-1.46-.78-3-1.53-4.42-2.35s-2.9-1.66-4.31-2.56a65.05,65.05,0,0,1-8.05-6,.27.27,0,0,1,0-.37.26.26,0,0,1,.38,0,64.26,64.26,0,0,0,8,5.91c1.4.89,2.84,1.73,4.29,2.53s2.94,1.55,4.42,2.34a.28.28,0,0,1,.12.39.28.28,0,0,1-.39.12Z"/><path class="cls-4" d="M496.08,753a33.73,33.73,0,0,1-4.63-8.91,31.4,31.4,0,0,1-1.62-9.9.22.22,0,0,1,.23-.22.23.23,0,0,1,.23.22A30.76,30.76,0,0,0,491.9,744a33.17,33.17,0,0,0,4.59,8.76.27.27,0,0,1-.06.36.25.25,0,0,1-.35-.06Z"/><path class="cls-4" d="M491.22,724.29a62.3,62.3,0,0,1,8.6-18,.15.15,0,0,1,.21,0,.15.15,0,0,1,0,.21,62,62,0,0,0-8.47,17.95.21.21,0,0,1-.24.15.21.21,0,0,1-.15-.25Z"/><path class="cls-4" d="M505.8,698.25a143,143,0,0,1,13.83-14.45.07.07,0,0,1,.1,0,.08.08,0,0,1,0,.11A142.52,142.52,0,0,0,506,698.41a.13.13,0,0,1-.2-.16Z"/><path class="cls-4" d="M527.19,677.25l.3-.25a2.38,2.38,0,0,0,.28-.26h0a0,0,0,0,1,.07,0s0,0,0,.06a4,4,0,0,1-.3.29l-.3.25a0,0,0,0,1-.07,0,.06.06,0,0,1,0-.08Z"/></g><path class="cls-2" d="M687.52,1214.67C762.7,1211.2,829,1164.34,858.15,1095c15.88-37.79,31.06-72.42,51-80,33.09-12.47,90-51.61,191.61-148.93,83-79.45,138.37-70.69,146.77-144.74,7.2-63.47,66.48-226.07-117.82-130.58C951.77,683,975.16,731.15,921.84,792.2c-34.94,40-126.23,90.35-150.71,125.07-89.58,127.1-83.36,191.4-120,191.4-46.61,0-76.36,110.28,32.94,106.14Z"/><path class="cls-21" d="M680.36,642.41c-.32,1-.63,1.89-.93,2.81C679.72,644.3,680,643.37,680.36,642.41Z"/><path class="cls-22" d="M630.76,535.93l-.53.12h0c-13.55,3.23-24.69,4-35.43,17.38-5.57-14.54-13.9-22.91-18.21-33.13-3.54-8.38-15.06-38.71,10.22-59.49h0a46.57,46.57,0,0,1,5.53-3.93,82.53,82.53,0,0,1,7.6-4.07c3-1.41,5.95-2.63,8.91-3.75A46.86,46.86,0,0,0,612.74,478c2.08,4.15-1,7.34,5.21,17.26,5.1,8.09,14.84,17.14,22,23.46C642.06,525.54,640.58,533.54,630.76,535.93Z"/><path class="cls-23" d="M665.26,390.86c-.47,2.51-1,4.89-1.53,7.16h0c-2.37,9.81-5.52,17.36-9.28,23.29-.51.82-1,1.6-1.57,2.36-11.28,15.85-27.34,19-44,25.37-3,1.12-5.92,2.34-8.9,3.75a82.53,82.53,0,0,0-7.6,4.07,47.54,47.54,0,0,0-5.54,3.93c12.4-13.39,10.27-19.12,14.85-34.33,3.86-12.81,12.64-25.73,26.77-32.09a44.3,44.3,0,0,1,9-2.95A75.21,75.21,0,0,1,665.26,390.86Z"/><path class="cls-24" d="M690.78,473.45a.25.25,0,0,1,0-.08v0S690.78,473.43,690.78,473.45Z"/><path class="cls-24" d="M692.83,471a5.43,5.43,0,0,0-2,2.24.06.06,0,0,0,0,0l0,.08s0,0,0,0v0a2.18,2.18,0,0,1,.51-1.07A8.54,8.54,0,0,1,692.83,471Z"/><path class="cls-24" d="M698.29,466.68a36.3,36.3,0,0,1-4,3.24A9,9,0,0,0,696.7,467a12.56,12.56,0,0,0,1.32-5c.7-8.77-9.15-13.32-12.55-3.86,0,0-3.62-9.26-10.55-12.72l-.33-.17c.4.09.8.15,1.19.2,7.81.82,9.8,8.82,9.8,8.82,3.51-12,16.17-5,16.46,4.09A11,11,0,0,1,698.29,466.68Z"/><path class="cls-22" d="M740.16,573.89c-.2-1.27-.42-2.52-.64-3.77s-.46-2.47-.7-3.68q-.2-.91-.39-1.8c-.11-.5-.21-1-.32-1.47s-.23-1-.35-1.43h0c-1.29-5.26-2.87-9.78-4.87-12.71-6.61-9.68-11-11.67-26.76-13.95a32.4,32.4,0,0,1-12.64-4.4,25.73,25.73,0,0,1-12-22.11c.12-.16.24-.32.35-.49q.33-.49.6-1c.09-.16.17-.32.25-.49,4.66-10.2,7.84-29.95,8.08-33.06a.25.25,0,0,1,0-.08s0-.05,0-.06v-.05a2.18,2.18,0,0,1,.51-1.07,8.54,8.54,0,0,1,1.53-1.28,16.7,16.7,0,0,0,1.45-1.07A9,9,0,0,0,696.7,467a12.56,12.56,0,0,0,1.32-5c.7-8.77-9.15-13.32-12.55-3.86,0,0-3.62-9.26-10.55-12.72l-.33-.17c-6.93-3.54-17.37-11.23-19.33-18.61h0c-.06-.24-.12-.48-.16-.72-.29-1.52-.5-3.05-.64-4.53,4.61-7.3,8.32-17,10.79-30.46,15.9,2.67,33,11,45.1,30,20,31.37,11.7,60.4,23.72,83.71C745,525.78,770,540.17,740.16,573.89Z"/><path class="cls-25" d="M693.49,530.67c-7.9,12.76-35.27,27.57-51.54,16.77-7.1-4.71-10.32-8.58-11.72-11.39l.53-.12c9.82-2.39,11.3-10.39,9.21-17.24l1.4,1.22a16.45,16.45,0,0,0,17.13,2.79c8-3.34,18.76-8.56,23-14.14A25.76,25.76,0,0,0,693.49,530.67Z"/><path class="cls-26" d="M728,620.81a49.21,49.21,0,0,1-8.1,1.34c-12.5,1.06-22,1-32.14-.59l-.95,2.55-.48,1.28c-.3.84-.61,1.67-.91,2.5s-.52,1.4-.77,2.1c-6.16,17.13-10.14,30.66-11.81,36.59a.83.83,0,0,0,0,.18,1.26,1.26,0,0,0,0,.12c-8.85-3-22.71-1.73-36.44.51-14.62,2.1-29.25,5.87-37.33,6.5l-.76,0c-.39,0-.76,0-1.11,0a89.74,89.74,0,0,0,.15-20.22c-1.2-9-2-16.06-2.48-21.73-.42-4.85-.62-8.69-.66-11.91-11.58-1.38-19-4.12-23.42-7.06-5.92-3.9-6.6-8.12-4.89-9.91,3.69-3.87,10.94-20.5,23.54-41.79a65.48,65.48,0,0,1,5.42-7.92c10.74-13.34,21.89-14.15,35.43-17.38h0c1.4,2.81,4.62,6.68,11.72,11.39,16.27,10.8,43.64-4,51.54-16.77a32.39,32.39,0,0,0,12.65,4.4c15.75,2.27,20.15,4.27,26.75,13.95,3.43,5,5.64,14.75,7.27,24.87h0c2.56,15.88,3.68,32.71,5.83,33.85C747,608.27,742.2,617.15,728,620.81Z"/><path class="cls-25" d="M594.81,632a165.44,165.44,0,0,1-15.3,27,44.53,44.53,0,0,0-7.89-6.8,21.24,21.24,0,0,0-7.44-3.19l-3.82-10c3.37-7.38,6.43-16.32,10.37-26,4.44,2.94,11.84,5.68,23.42,7.06C594.19,623.33,594.39,627.17,594.81,632Z"/><path class="cls-21" d="M600.45,591.8l0,0"/><path class="cls-27" d="M717.74,982c4.51,33.5,6.66,69.87,12.71,94-8.08,10.51-17.94,10.22-22.81,9.24-9-23.29-20.38-51.13-31.33-75.42h0c-11.63-25.78-22.75-47.55-29.88-55.59-21.3-24-22.63-43.51-19.6-62.27,2.38-14.73,15.51-75.57,26-112.4h0c36.27-1.94,67.91-3.39,84.1-7.68,3.06,13,1.2,26.39-8.64,50.3-16.67,40.53-47,93.79-44,97.55S711.68,937,717.74,982Z"/><path class="cls-28" d="M736.22,1092.42c-8.58,16-22,10.28-22,10.28-2-5.39-4.19-11.25-6.57-17.43,4.87,1,14.73,1.27,22.81-9.24A77.85,77.85,0,0,0,736.22,1092.42Z"/><path class="cls-22" d="M741.71,1126c-10.54,18.12-11.71,29.33-21.55,32.66-12.14,4.1-16.92-12-10.6-31.64,3.14-9.77,4.92-19.16,4.65-24.31,0,0,13.43,5.69,22-10.28,0,0,1.53,1.57,4.63,5.18C747.13,1104.89,751.46,1109.22,741.71,1126Z"/><path class="cls-27" d="M676.31,1009.84h0c-.6,24.1-2.92,60.94-7.72,118.69-8.36,7.38-19.69,5.89-24.37.59,3-46.82-14.8-95-18.6-116-4.29-23.61-6.77-64.49-12-78.31-28.9-76.31-35-136.67-30.92-166.27,12.31,6.87,35.72,12.84,67.63,11.13l2.55-.13c-10.54,36.83-23.67,97.67-26,112.4-3,18.76-1.7,38.27,19.6,62.27C653.56,962.29,664.68,984.06,676.31,1009.84Z"/><path class="cls-28" d="M668.59,1128.54q-.21,2.45-.42,5c-.12,1.53-.19,9-.19,9-8.78,9.42-25,3.94-25,3.94,1.11-5.81.9-11.42,1.28-17.33C648.9,1134.43,660.23,1135.92,668.59,1128.54Z"/><path class="cls-22" d="M672.24,1165.16c-4.73,9.38-18.16,21.29-26.38,31.49-7.05,8.74-24.28,7.85-20.43-5.85,3.53-12.55,16.61-26.76,17.51-44.34,0,0,16.26,5.48,25-3.94C671.72,1149.13,677.89,1154,672.24,1165.16Z"/><path class="cls-29" d="M575.9,693.64H544.15a3.78,3.78,0,0,1-3.53-2.43l-24.22-63.3a3.78,3.78,0,0,1,3.53-5.13h31.75a3.79,3.79,0,0,1,3.53,2.43l24.22,63.3A3.78,3.78,0,0,1,575.9,693.64Z"/><path class="cls-30" d="M545.1,657.4a14.48,14.48,0,0,1-3.85,6.72A23,23,0,0,1,532,669a19.71,19.71,0,0,1-3.72.68c-5.81-10-8.24-17.7-4.36-21.79h0l.19-.19c4.17-4,10.18-13.24,17.16-8.64C546.16,642.31,547,650.83,545.1,657.4Z"/><path class="cls-26" d="M748.48,764c0,3.43-4.14,6-11.49,7.91-16.19,4.29-47.83,5.74-84.1,7.68h0l-2.55.13c-31.91,1.71-55.32-4.26-67.63-11.13-8.48-4.74-11.7-9.9-8.8-13.27,4.79-5.58,15.56-36.41,20.84-64.95,16.56,5.93,46.73,4,59.71,4.66,10.72.55,36.65,3.05,44.07-3.64l.38-.35c3.58-3.72,4.44-8.7,16.31-37-1.5,9.73-1.49,21.18,3.2,31.38C729.27,709,748.44,756.83,748.48,764Z"/><path class="cls-25" d="M728,620.81c-3.48,10.15-8,21.73-12.82,33.22-11.87,28.3-12.73,33.28-16.31,37l-.38.35c-7.42,6.69-33.35,4.19-44.07,3.64-13-.67-43.15,1.27-59.71-4.66-4.26-1.53-7.66-2.79-9.66-3.65a23.89,23.89,0,0,0-7.14-1.71c-7.38-.75-14.84.39-23.16-8.35-9.8-10.28-4.88-20.77-2.56-24.44.53-.56,1-1.15,1.53-1.78,1.81-1.26,5.7-2.36,10.43-1.39a21.24,21.24,0,0,1,7.44,3.19,44.53,44.53,0,0,1,7.89,6.8c5.36,5.75,8.85,12.1,9.41,15.22,0,0,3.14-.22,8.22-.28.35,0,.72,0,1.11,0l.76,0c8.08-.58,22.62-4.1,37.33-6.5,13.73-2.24,27.59-3.51,36.44-.51a1.26,1.26,0,0,1,0-.12.83.83,0,0,1,0-.18c1.51-5.37,4.92-17,10.12-31.85v0q.48-1.38,1-2.79l.12-.33.57-1.6c.25-.7.51-1.4.77-2.1s.61-1.66.91-2.5l.48-1.28.95-2.55c10.1,1.61,19.64,1.65,32.14.59A49.21,49.21,0,0,0,728,620.81Z"/><path class="cls-25" d="M698.06,461v0a8.77,8.77,0,0,1,0,.88,12.56,12.56,0,0,1-1.32,5,9,9,0,0,1-2.42,2.94c-.52.38-1,.73-1.45,1.07a8.54,8.54,0,0,0-1.53,1.28,2.18,2.18,0,0,0-.51,1.07v0a.25.25,0,0,0,0,.08.25.25,0,0,0,0,.08c-.24,3.11-3.42,22.86-8.08,33.06-.08.17-.16.33-.25.49q-.27.5-.6,1c-.11.17-.23.33-.35.49-4.23,5.58-14.94,10.8-23,14.14a16.43,16.43,0,0,1-17.12-2.79L640,518.69c-7.18-6.32-16.92-15.37-22-23.46-6.25-9.92-3.13-13.11-5.21-17.26a46.79,46.79,0,0,1-3.88-28.92c16.68-6.34,32.74-9.52,44-25.37.54-.76,1.07-1.55,1.58-2.36.14,1.48.35,3,.64,4.53,0,.24.1.48.16.72h0c2,7.38,12.4,15.07,19.33,18.61l.33.17c6.93,3.46,10.55,12.72,10.55,12.72C688.75,449,698,452.86,698.06,461Z"/><path class="cls-12" d="M741.91,613.83c-4-6.6-8.22-19.7-10.19-29.87-2.9-15-4.44-30.94-17.08-34.18-11.18-2.87-18.49-7.35-25.82-13.43-1-.8-1.93-1.63-2.89-2.48-8.38-7.34-15.8-10.47-19.47-9.91-7.72,1.19-16.71,2.39-21.5,0a29.59,29.59,0,0,1-4.36-2.45,18.23,18.23,0,0,0-.63-2.82l1.41,1.22a16.43,16.43,0,0,0,17.12,2.79c8-3.34,18.76-8.56,23-14.14.12-.16.24-.32.35-.49a10.45,10.45,0,0,0,.6-1c.09-.16.17-.32.25-.49,4.66-10.2,7.84-29.95,8.08-33.06a.25.25,0,0,1,0-.08.25.25,0,0,1,0-.08v0s0,0,0-.07a.06.06,0,0,1,0,0,3.26,3.26,0,0,1,.47-1,8.54,8.54,0,0,1,1.53-1.28c.44-.34.93-.69,1.45-1.07A9,9,0,0,0,696.7,467a12.56,12.56,0,0,0,1.32-5,8.77,8.77,0,0,0,0-.88c.05.6.21,5.22.23,5.62a145.86,145.86,0,0,1-2.53,36.55c-4.53,23.19,11.57,18.46,32.27,36,9.89,8.39,10.77,16.86,9.73,22.51h0c.12.47.24.94.35,1.43s.21,1,.32,1.47.26,1.19.39,1.8c.24,1.21.47,2.44.7,3.68s.44,2.5.64,3.77h0c2.55,15.87,3.68,32.71,5.83,33.85C746.54,608,745.37,610.78,741.91,613.83Z"/><path class="cls-31" d="M630.76,535.93l-.53.12h0c-5.09,1.21-9.84,2.08-14.36,3.4,4.48-12.1.94-29.52-7.76-45-7.45-13.2-7.24-28.62-1.82-44.45.86-.34,1.72-.68,2.57-1A46.86,46.86,0,0,0,612.74,478c2.08,4.15-1,7.34,5.21,17.26,5.1,8.09,14.85,17.14,22,23.46C642.06,525.54,640.58,533.54,630.76,535.93Z"/><path class="cls-11" d="M714.26,427.63c-25.85-35.3-43.34-30.49-50.52-29.6.14-.57.27-1.14.4-1.72-.13.57-.27,1.15-.41,1.71-.48-.33-16.3-10.91-35.3-3.64a44.3,44.3,0,0,1,9-2.95,75.21,75.21,0,0,1,27.86-.57c15.89,2.67,33,11,45.09,30Q712.52,424.27,714.26,427.63Z"/><path class="cls-21" d="M644.77,1185.4l-.67.4"/><path class="cls-14" d="M597.12,601.85a52.91,52.91,0,0,0-3,18c0,.08,0,.16,0,.24,0,3.22.24,7.06.66,11.91a165.44,165.44,0,0,1-15.3,27,44.53,44.53,0,0,0-7.89-6.8,21.24,21.24,0,0,0-7.44-3.19l-2.29-6c16.36,9.79,22.25,2.45,24.46-9.43a118.69,118.69,0,0,1,3.95-14.06c4.12-12.54,9.8-26.89,10.15-27.78C599,596.26,597.94,599.5,597.12,601.85Z"/><path class="cls-21" d="M680.36,642.41c-.32,1-.63,1.89-.93,2.81C679.72,644.3,680,643.37,680.36,642.41Z"/><path class="cls-14" d="M694.62,622.42a89.27,89.27,0,0,1-5.49,15.39c-12.37,27.21,4,38.56-16.26,28.77q.32-1.12.75-2.61c.06-.23.13-.47.2-.72l.35-1.19c.11-.39.23-.79.35-1.2s.29-1,.44-1.47l.3-1c.54-1.8,1.15-3.79,1.83-5.94.13-.39.25-.79.38-1.19.6-1.91,1.26-3.93,2-6.07.29-.92.61-1.85.93-2.81l.33-1c.08-.26.17-.52.26-.78.16-.48.33-1,.49-1.45,0-.13.09-.26.14-.4.45-1.33.92-2.7,1.41-4.09v0q.48-1.38,1-2.79l.12-.33.57-1.6c.25-.7.51-1.4.77-2.1s.61-1.66.91-2.5l.48-1.28.95-2.55c3.31-8.75,5.68-16.61,6.18-22.09C694,599.47,698.6,606.32,694.62,622.42Z"/><path class="cls-21" d="M697.27,777l3.46-.25Z"/><path class="cls-21" d="M702.84,776.59l1-.08c-.67.06-1.35.12-2,.16Z"/><path class="cls-21" d="M714.21,775.57l3.27-.36C716.41,775.34,715.32,775.45,714.21,775.57Z"/><path class="cls-14" d="M676.31,1009.84h0q-.06,2.52-.15,5.25C668,997,650.88,967.46,643,957.84c-39.89-48.41-30.6-102.35-29.18-115,1.47-13.12,2.62-38.6,5.24-64l1.18.14,1.2.12,1.2.12,2.46.22,1.42.11c1.61.11,3.25.21,4.93.28l1.17,0h.12l1.5.05,1.19,0,1.34,0c4.34.06,8.88,0,13.61-.28l2.55-.13h0c-10.54,36.83-23.67,97.67-26,112.4-3,18.76-1.7,38.27,19.6,62.27C653.56,962.29,664.68,984.06,676.31,1009.84Z"/><path class="cls-14" d="M661.07,1127c0,1.7.07,3.68.13,5.72a20.36,20.36,0,0,0,7.39-4.19c1.94-23.29,3.47-43.17,4.65-60.19v-.08C668.46,1075.45,660.72,1102.42,661.07,1127Z"/><path class="cls-21" d="M697.27,777l3.46-.25Z"/><path class="cls-21" d="M702.84,776.59l2.08-.16-1,.08c-.67.06-1.35.12-2,.16Z"/><path class="cls-21" d="M714.21,775.57l3.27-.36C716.41,775.34,715.32,775.45,714.21,775.57Z"/><path class="cls-32" d="M737,771.9c3,13,1.19,26.4-8.64,50.31-16.68,40.51-47,93.78-44,97.54S711.68,937,717.74,982c4.52,33.5,6.66,69.87,12.71,94a31,31,0,0,1-2.93,3.29c-10.61-39-22.39-98.2-24.54-107.16-9.12-38.08-30.29-42.15-30.57-51.48-1.34-45.76,43.3-119.9,47.43-145.75a20.75,20.75,0,0,0,.26-2.2c1-14.77-11.47-49.46-23.86-62.64A26.9,26.9,0,0,1,689.1,695q.42-.06.81-.15l.8-.15a27.49,27.49,0,0,0,3.11-.83l.5-.17.38-.14c.38-.14.73-.29,1.08-.45l.47-.23.44-.23.14-.08.42-.24c.15-.11.32-.2.45-.31a7.76,7.76,0,0,0,.82-.64l.38-.37c3.59-3.71,4.44-8.69,16.31-37-1.51,9.73-1.5,21.18,3.21,31.38,10.85,23.57,30,71.42,30.06,78.58C748.5,767.42,744.34,770,737,771.9Z"/><path class="cls-21" d="M680.36,642.41c-.32,1-.63,1.89-.93,2.81C679.72,644.3,680,643.37,680.36,642.41Z"/><polygon class="cls-14" points="640.93 488.19 643.14 490.13 657.59 488.56 642.99 464.36 640.93 488.19"/><path class="cls-14" d="M736.23,1092.42a27.73,27.73,0,0,1-3.37,5c-1.71-5.18-3.51-11.32-5.34-18.07a31,31,0,0,0,2.93-3.29A77.27,77.27,0,0,0,736.23,1092.42Z"/><path class="cls-33" d="M741.72,1126c-.67,1.13-1.29,2.23-1.88,3.31-.3.54-.58,1.07-.86,1.6-.37.7-.73,1.37-1.07,2,1.69-7.58,1.94-20,.63-23.88-1.27-3.68-3.67-5.58-5.68-11.67a27.73,27.73,0,0,0,3.37-5v0a.86.86,0,0,0,.23.24c.55.58,2,2.15,4.38,4.92C747.13,1104.89,751.46,1109.22,741.72,1126Z"/><path class="cls-17" d="M736.24,1092.44a1.83,1.83,0,0,1,.23.24A.86.86,0,0,1,736.24,1092.44Z"/><path class="cls-17" d="M741.72,1126c-.66,1.13-1.28,2.23-1.88,3.31C740.43,1128.22,741.05,1127.12,741.72,1126Z"/><path class="cls-14" d="M668.59,1128.54q-.21,2.45-.42,5c-.13,1.53-.19,9-.19,9a16,16,0,0,1-5.63,3.89c-.19-1.14-.36-2.28-.49-3.33-.34-2.64-.54-6.58-.66-10.35A20.36,20.36,0,0,0,668.59,1128.54Z"/><path class="cls-33" d="M672.25,1165.16a33.88,33.88,0,0,1-2.16,3.63c-.21.31-.42.62-.65.94A119.71,119.71,0,0,1,660,1181c5.09-8,6.87-19,4.27-26.4a56.28,56.28,0,0,1-1.9-8.2,16,16,0,0,0,5.63-3.89C671.72,1149.13,677.89,1154,672.25,1165.16Z"/><path class="cls-34" d="M100.86,118.14c.39,1.83-3.74,3-7.29,1.81-2.58-.86-5-5.07-5-9.06,0-4.51,1-6.33,3-8.8,2.13-2.75,5.43-3.72,9.92-1.78C101.47,100.31,100.18,115,100.86,118.14Z"/><path class="cls-7" d="M181.38,95.56c-.1-4.82,0-8.57,0-8.57S163,86.26,139,75s-41.25,68.75-17.82,72.81,14.57-4.23,28.75-3.06c9.27.77,8.56,7.64,15.77,8.58,6.49.83,12-11.56,15.55-11.55.68,0,1.28.46,1.8,1.56,3.2,6.77-2.69,24.76-19.32,37a35,35,0,0,1-7.82,4.32c-14.72,5.82-30.35.26-37.57-4.57-6.64-4.44-13.06-9.73-17.48-22.74a88,88,0,0,1-3.23-13.08c-1.14-6.5-2.71-15-4-24.31,3.55,1.19,7.68,0,7.29-1.81-.68-3.18.61-17.83.61-17.83-4.49-1.94-7.79-1-9.92,1.78-1.42-18.68-.36-37.24,8-46.71C115.1,37.91,131,30.53,160.47,40.14,184.38,48,203.07,66.64,210,57.43,212.69,53.75,223.51,92,181.38,95.56Z"/><path class="cls-6" d="M181.22,141.82c-3.52,0-9.06,12.38-15.55,11.55-7.21-.94-6.5-7.82-15.77-8.58-14.17-1.17-5.33,7.12-28.75,3.06s-6.26-84,17.82-72.8S181.33,87,181.33,87s-.05,3.75,0,8.57a137.27,137.27,0,0,0,1,16.18C184.86,127.61,183.17,135.85,181.22,141.82Z"/><path class="cls-13" d="M181.22,141.82c-1.48,0-3.31,2.17-5.43,4.64,3.5-14,2-24-.25-36.84-1.63-9.26.23-20.51.64-22.75a1.43,1.43,0,0,0,0-.16v0l0-.2,1.18.16,1,.11,1.06.11.29,0,.81.06.23,0H181l.24,0h.09s-.05,3.75,0,8.57a137.27,137.27,0,0,0,1,16.18C184.86,127.6,183.17,135.84,181.22,141.82Z"/><polygon class="cls-13" points="160.78 141.96 158.47 144.51 141.46 144.61 155.21 114.53 160.78 141.96"/><g class="cls-35"><circle class="cls-4" cx="477.77" cy="580.19" r="43.8" transform="translate(-202.88 261.45) rotate(-25.44)"/></g><circle class="cls-4" cx="477.77" cy="580.19" r="33.58" transform="translate(-202.88 261.45) rotate(-25.44)"/><circle class="cls-36" cx="484.6" cy="570.35" r="4.22"/><circle class="cls-36" cx="467.73" cy="580.19" r="4.22"/><circle class="cls-36" cx="484.6" cy="590.03" r="4.22"/><line class="cls-36" x1="471.37" y1="582.31" x2="480.97" y2="587.91"/><line class="cls-36" x1="480.96" y1="572.47" x2="471.37" y2="578.06"/><circle class="cls-37" cx="1158.88" cy="490.19" r="16.9"/><path class="cls-38" d="M1152.69,486.19a4.39,4.39,0,0,0-1.71,6c1.38,2.57,4.62,3.59,9,4.74,1,.26,2,.55,2.93.85.28-1,.58-1.94.92-2.91,1.49-4.33,2.44-7.59,1.07-10.16a4.39,4.39,0,0,0-6-1.92,4.66,4.66,0,0,0-2.18,2.66l-.17.51-.52-.14a4.65,4.65,0,0,0-3.42.34"/><circle class="cls-37" cx="489.88" cy="522.19" r="13.4"/><path class="cls-38" d="M487.74,516.75a3.48,3.48,0,0,0-3.89,3.09c-.3,2.29,1.31,4.44,3.63,7.24.52.63,1,1.27,1.49,1.9.63-.49,1.28-1,1.94-1.44,3-2.1,5.09-3.76,5.4-6a3.47,3.47,0,0,0-2.95-4,3.71,3.71,0,0,0-2.64.69l-.34.26-.27-.34a3.7,3.7,0,0,0-2.37-1.36"/><circle class="cls-39" cx="463.99" cy="525.19" r="19.42" transform="translate(-235.47 481.91) rotate(-45)"/><circle class="cls-40" cx="463.27" cy="523.11" r="17.23" transform="translate(-231.61 449.55) rotate(-42.43)"/><path class="cls-39" d="M461.28,533.15c.18,1.75-1.47,3.36-3.69,3.6s-4.18-1-4.37-2.75,1.47-3.36,3.69-3.6S461.09,531.4,461.28,533.15Z"/><path class="cls-39" d="M471,529.78c.93,1.49,3.23,1.74,5.12.56s2.68-3.36,1.75-4.86-3.23-1.74-5.13-.55S470.09,528.29,471,529.78Z"/><path class="cls-41" d="M468,536.79A7.6,7.6,0,0,0,473,528.5a1.2,1.2,0,0,0-1.57-1l-11.92,4.12a1.19,1.19,0,0,0-.64,1.72A7.61,7.61,0,0,0,468,536.79Z"/><path class="cls-37" d="M467.06,534.08a7.41,7.41,0,0,0-3.7,2.82A7.62,7.62,0,0,0,471.7,534,7.37,7.37,0,0,0,467.06,534.08Z"/><circle class="cls-42" cx="454.92" cy="527.55" r="2.61"/><path class="cls-43" d="M455.76,526.54a1.12,1.12,0,1,1-1.43-.69A1.12,1.12,0,0,1,455.76,526.54Z"/><path class="cls-43" d="M456.29,528.1a.31.31,0,1,1-.4-.2A.31.31,0,0,1,456.29,528.1Z"/><circle class="cls-42" cx="472.58" cy="521.45" r="2.61"/><path class="cls-43" d="M473.42,520.45a1.12,1.12,0,1,1-1.43-.7A1.12,1.12,0,0,1,473.42,520.45Z"/><path class="cls-43" d="M474,522a.31.31,0,1,1-.4-.2A.32.32,0,0,1,474,522Z"/><path class="cls-43" d="M471.47,527.54l-11.92,4.12a1.19,1.19,0,0,0-.64,1.72c.1.17.2.34.31.5a65.43,65.43,0,0,0,7.13-2,68.61,68.61,0,0,0,6.75-2.73,6,6,0,0,0-.06-.61A1.2,1.2,0,0,0,471.47,527.54Z"/><path class="cls-44" d="M449.51,522.74l-.4-.19a.56.56,0,0,1-.24-.82,6.24,6.24,0,0,1,1.08-1.24,5.57,5.57,0,0,1,4-1.4.58.58,0,0,1,.53.65l-.07.44a.56.56,0,0,1-.57.48,4.12,4.12,0,0,0-3.66,1.88A.55.55,0,0,1,449.51,522.74Z"/><path class="cls-44" d="M473.87,514.33l.2-.4a.56.56,0,0,0-.33-.79,6.37,6.37,0,0,0-1.61-.31,5.52,5.52,0,0,0-4,1.39.55.55,0,0,0,0,.83l.31.31a.57.57,0,0,0,.76,0,4.09,4.09,0,0,1,4-.77A.57.57,0,0,0,473.87,514.33Z"/><circle class="cls-45" cx="867.77" cy="572.19" r="12.71"/><path class="cls-43" d="M865.21,569.08l-2.18-.6a.54.54,0,0,0-.67.39l-1.7,6.2a.56.56,0,0,0,.38.68l2.18.59a.54.54,0,0,0,.67-.38l1.7-6.21a.54.54,0,0,0-.38-.67Z"/><path class="cls-43" d="M873.69,571.4l-3.81-1a6.71,6.71,0,0,0,1.83-2,2.68,2.68,0,0,0,.19-2.12.66.66,0,0,0-1.16,0l-.69,1.22a3,3,0,0,1-1.09,1.08l-2,1.09-.2.12a.42.42,0,0,0-.14.09.6.6,0,0,0-.19.3l-1.67,6.09a.63.63,0,0,0,.44.77l3.83,1.05a2.74,2.74,0,0,0,3.1-1.27l2.18-3.73a1.08,1.08,0,0,0-.64-1.58Z"/><polyline class="cls-46" points="1073.45 21.02 1093.44 41.28 1099.85 75.56 1116.34 64.49 1137.92 86.36 1169.62 0 1073.45 21.02"/><polyline class="cls-47" points="1093.44 41.28 1093.44 41.28 1099.67 74.58 1099.67 74.58 1093.44 41.28 1093.44 41.28"/><path class="cls-48" d="M1169.62,0,1108,56.18l-7.74,18.46-.11,0a1,1,0,0,0-.46,0l-6.23-33.3L1169.62,0"/><polyline class="cls-49" points="1116.34 64.49 1116.34 64.49 1115.61 64.98 1116.34 64.49"/><path class="cls-50" d="M1108,56.18l8.36,8.31-.73.49-14.93,10a.92.92,0,0,0-.39-.34l0,0L1108,56.18"/><circle class="cls-37" cx="379.48" cy="167.14" r="11.52"/><path class="cls-38" d="M377.13,162.7a3,3,0,0,0-3,3c0,2,1.55,3.68,3.8,5.84.5.49,1,1,1.46,1.49.48-.48,1-1,1.52-1.43,2.33-2.07,4-3.69,4-5.68a3,3,0,0,0-2.9-3.13,3.13,3.13,0,0,0-2.19.85l-.27.25-.26-.26a3.18,3.18,0,0,0-2.15-.94"/><circle class="cls-45" cx="354.69" cy="176.62" r="17.85" transform="translate(-37.16 235.39) rotate(-35)"/><path class="cls-43" d="M349.5,174.35l-3.1.64a.76.76,0,0,0-.6.91l1.8,8.85a.79.79,0,0,0,.91.6l3.11-.64a.76.76,0,0,0,.6-.91L350.41,175a.78.78,0,0,0-.91-.6Z"/><path class="cls-43" d="M361.6,171.88,356.17,173a9.47,9.47,0,0,0,1-3.72,3.73,3.73,0,0,0-1.1-2.78.93.93,0,0,0-1.47.71l-.1,2a3.91,3.91,0,0,1-.68,2L352,173.84l-.18.26a.92.92,0,0,0-.16.7l1.77,8.69a.88.88,0,0,0,1,.68l5.47-1.11a3.86,3.86,0,0,0,3.08-3.56l.36-6.05a1.51,1.51,0,0,0-1.81-1.57Z"/><circle class="cls-39" cx="382.6" cy="194.18" r="18.73"/><circle class="cls-40" cx="383.02" cy="192.11" r="16.61"/><path class="cls-39" d="M377.23,195.61c-.71,1.55-2.87,2.08-4.83,1.18s-3-2.88-2.28-4.42,2.87-2.07,4.83-1.18S377.94,194.07,377.23,195.61Z"/><path class="cls-39" d="M387,197.61c0,1.7,1.82,3,4,3s3.87-1.47,3.83-3.17-1.83-3-4-3S386.93,195.91,387,197.61Z"/><circle class="cls-42" cx="374.79" cy="190.26" r="3.09"/><path class="cls-43" d="M376.25,189.75a1.32,1.32,0,0,1-1.57,1,1.31,1.31,0,0,1-1-1.56,1.33,1.33,0,1,1,2.6.53Z"/><circle class="cls-42" cx="391.32" cy="193.64" r="3.09" transform="translate(51.52 467.81) rotate(-65.23)"/><path class="cls-43" d="M392.78,193.13a1.33,1.33,0,0,1-2.6-.53,1.34,1.34,0,0,1,1.57-1A1.32,1.32,0,0,1,392.78,193.13Z"/><path class="cls-44" d="M372.71,182.28l-.32-.28a.55.55,0,0,1,0-.83,6.25,6.25,0,0,1,1.33-.86,5.33,5.33,0,0,1,4.1-.2.54.54,0,0,1,.32.74l-.17.39a.55.55,0,0,1-.67.29,4,4,0,0,0-3.88.76A.55.55,0,0,1,372.71,182.28Z"/><path class="cls-44" d="M396.41,187.08l.41-.14a.56.56,0,0,0,.3-.78,6.6,6.6,0,0,0-.92-1.29,5.31,5.31,0,0,0-3.73-1.71.55.55,0,0,0-.57.57l0,.42a.53.53,0,0,0,.51.52,4,4,0,0,1,3.33,2.15A.55.55,0,0,0,396.41,187.08Z"/><ellipse class="cls-41" cx="381.11" cy="201.47" rx="5.62" ry="5.35" transform="translate(107.39 534.5) rotate(-78.45)"/><path class="cls-37" d="M380.48,204.55a9.53,9.53,0,0,0-3.91,0,5.17,5.17,0,0,0,7.51,1.53A9.69,9.69,0,0,0,380.48,204.55Z"/><path class="cls-43" d="M382,197.62c1.24.26,2.45.47,3.62.64a5.17,5.17,0,0,0-7.29-1.5C379.45,197.07,380.68,197.36,382,197.62Z"/><g class="cls-51"><circle class="cls-43" cx="334.77" cy="243.19" r="43.8" transform="translate(-72 167.36) rotate(-25.44)"/></g><circle class="cls-4" cx="334.77" cy="243.19" r="33.58" transform="translate(-72 167.36) rotate(-25.44)"/><circle class="cls-36" cx="341.6" cy="233.35" r="4.22"/><circle class="cls-36" cx="324.73" cy="243.19" r="4.22"/><circle class="cls-36" cx="341.6" cy="253.03" r="4.22"/><line class="cls-36" x1="328.37" y1="245.31" x2="337.97" y2="250.91"/><line class="cls-36" x1="337.96" y1="235.47" x2="328.37" y2="241.06"/><g class="cls-3"><path class="cls-4" d="M367.35,253.23c5.18,4.19,10.55,8.14,16,12a.09.09,0,0,1,0,.13.09.09,0,0,1-.13,0h0c-5.42-3.88-10.77-7.86-16-12.07a0,0,0,0,1,0-.07A0,0,0,0,1,367.35,253.23Z"/><path class="cls-4" d="M391.56,270.91q8.29,5.59,16.83,10.79a.16.16,0,0,1,.05.22.16.16,0,0,1-.21.05h0q-8.52-5.25-16.8-10.87a.12.12,0,0,1,0-.16A.12.12,0,0,1,391.56,270.91Z"/><path class="cls-4" d="M417,286.8q8.65,5,17.55,9.57a.2.2,0,0,1,.09.29.22.22,0,0,1-.29.1h0q-8.89-4.61-17.53-9.65a.18.18,0,0,1,.18-.31Z"/><path class="cls-4" d="M443.5,300.8q9,4.32,18.26,8.1a.25.25,0,0,1,.15.33.27.27,0,0,1-.34.14h0c-6.18-2.52-12.27-5.25-18.28-8.14a.24.24,0,0,1-.11-.32A.23.23,0,0,1,443.5,300.8Z"/><path class="cls-4" d="M471.08,312.49c6.26,2.29,12.6,4.36,19,6.15a.27.27,0,0,1,.19.34.28.28,0,0,1-.34.2h0c-6.43-1.81-12.77-3.89-19-6.19a.27.27,0,0,1-.15-.34A.26.26,0,0,1,471.08,312.49Z"/><path class="cls-4" d="M499.77,321.11a189.17,189.17,0,0,0,19.65,3.47.3.3,0,0,1,.27.34.32.32,0,0,1-.34.27h0a193.16,193.16,0,0,1-19.71-3.52.29.29,0,1,1,.13-.56Z"/><path class="cls-4" d="M529.36,325.48a139.7,139.7,0,0,0,19.94-.21.33.33,0,0,1,.05.65h0a138.06,138.06,0,0,1-20,.18.31.31,0,0,1-.29-.33A.31.31,0,0,1,529.36,325.48Z"/><path class="cls-4" d="M559.19,324a110.26,110.26,0,0,0,19.27-5,.36.36,0,0,1,.46.22.36.36,0,0,1-.22.45h0a111.88,111.88,0,0,1-19.4,5,.34.34,0,1,1-.11-.67Z"/><path class="cls-4" d="M587.67,315.22a105.16,105.16,0,0,0,17.13-10.14.38.38,0,0,1,.44.62h0A106.85,106.85,0,0,1,588,315.88a.36.36,0,0,1-.31-.66Z"/><path class="cls-4" d="M612.58,298.87a124,124,0,0,0,13.88-14.28.4.4,0,0,1,.57,0,.39.39,0,0,1,.05.56h0a124.75,124.75,0,0,1-14,14.35.38.38,0,0,1-.54,0A.39.39,0,0,1,612.58,298.87Z"/><path class="cls-4" d="M632.56,276.7q2.91-4.05,5.55-8.29c.88-1.4,1.75-2.84,2.66-4.24s1.85-2.79,2.82-4.15a.42.42,0,1,1,.69.49h0q-1.44,2-2.8,4.12c-.91,1.39-1.77,2.81-2.66,4.23q-2.67,4.25-5.6,8.32a.41.41,0,0,1-.57.09A.4.4,0,0,1,632.56,276.7Z"/><path class="cls-4" d="M649.81,252.14a55,55,0,0,1,15.6-12.6.45.45,0,0,1,.6.2.44.44,0,0,1-.19.6,54.25,54.25,0,0,0-15.35,12.38.44.44,0,1,1-.66-.58Z"/><path class="cls-4" d="M674.92,236.16a38.62,38.62,0,0,1,10.06-.74,52.11,52.11,0,0,1,9.94,1.57.42.42,0,0,1-.2.82h0a43.08,43.08,0,0,0-19.61-.8.43.43,0,1,1-.18-.85Z"/><path class="cls-4" d="M704.46,240.14a174.15,174.15,0,0,1,18.06,8.67.39.39,0,0,1,.17.53.41.41,0,0,1-.54.16,177.51,177.51,0,0,0-18-8.6.41.41,0,0,1-.23-.53.4.4,0,0,1,.53-.23Z"/><path class="cls-4" d="M731.3,253.61C737.14,256.83,743,260,749,263a.37.37,0,0,1-.32.66c-6-2.94-11.85-6.14-17.7-9.35a.39.39,0,0,1-.15-.52.38.38,0,0,1,.52-.15Z"/><path class="cls-4" d="M758,267.13A105.41,105.41,0,0,0,777,273.28a.34.34,0,0,1-.14.67,107.14,107.14,0,0,1-19.07-6.16.36.36,0,0,1-.19-.47.37.37,0,0,1,.47-.19Z"/><path class="cls-4" d="M786.79,274.75a65.71,65.71,0,0,0,19.78-1.36.31.31,0,1,1,.14.61,66.34,66.34,0,0,1-20,1.41.33.33,0,0,1,0-.66Z"/><path class="cls-4" d="M816.09,270.49a84.22,84.22,0,0,0,17.53-9.38.3.3,0,0,1,.4.08.28.28,0,0,1-.07.39,84.93,84.93,0,0,1-17.64,9.48.3.3,0,0,1-.39-.17.3.3,0,0,1,.17-.4Z"/><path class="cls-4" d="M841.58,255.1a91.83,91.83,0,0,0,14-14.13.21.21,0,0,1,.3,0,.21.21,0,0,1,0,.29,91.47,91.47,0,0,1-14,14.29.27.27,0,1,1-.34-.41Z"/><path class="cls-4" d="M861.07,232.64a45.12,45.12,0,0,0,3.73-9.21,35.6,35.6,0,0,0,1.28-9.84.17.17,0,1,1,.34,0h0a40.66,40.66,0,0,1-5,19.23.19.19,0,0,1-.25.08.18.18,0,0,1-.07-.25Z"/><path class="cls-4" d="M864.44,203.81a38.14,38.14,0,0,0-10.92-16.35.23.23,0,0,1,.31-.35h0a38.5,38.5,0,0,1,11,16.58.19.19,0,1,1-.37.12Z"/><path class="cls-4" d="M845.43,181.71a41.87,41.87,0,0,0-9.17-3.77,32.41,32.41,0,0,0-9.79-1.23.31.31,0,0,1-.33-.3.32.32,0,0,1,.3-.34h0a33.57,33.57,0,0,1,10,1.31,43.78,43.78,0,0,1,9.27,3.87.26.26,0,1,1-.26.46Z"/><path class="cls-4" d="M817,179.18a16.7,16.7,0,0,0-6.7,6.93,24.46,24.46,0,0,0-2.5,9.44.42.42,0,0,1-.83-.05h0a25.35,25.35,0,0,1,2.65-9.74,17.48,17.48,0,0,1,7-7.19.35.35,0,0,1,.48.14A.35.35,0,0,1,817,179.18Z"/><path class="cls-4" d="M808.55,205.36a21.72,21.72,0,0,0,4.28,8.72,23.53,23.53,0,0,0,7.68,6,.45.45,0,0,1,.2.61.44.44,0,0,1-.61.2h0a24.26,24.26,0,0,1-8-6.22,22.4,22.4,0,0,1-4.44-9.09.44.44,0,1,1,.86-.2Z"/><path class="cls-4" d="M829.86,223.19a77.09,77.09,0,0,0,19.79,1,.45.45,0,0,1,.49.43.45.45,0,0,1-.43.49h0a77,77,0,0,1-20-1,.46.46,0,1,1,.19-.89Z"/><path class="cls-4" d="M859.56,223.18a195,195,0,0,0,19.57-3.85.46.46,0,0,1,.57.34.47.47,0,0,1-.34.57h0a192.87,192.87,0,0,1-19.66,3.86.46.46,0,0,1-.53-.4A.47.47,0,0,1,859.56,223.18Z"/><path class="cls-4" d="M888.77,216.74c6.39-1.85,12.72-3.92,19-6.16a.48.48,0,1,1,.33.91h0c-6.29,2.24-12.64,4.31-19.06,6.16a.47.47,0,1,1-.26-.91Z"/><path class="cls-4" d="M917.12,207.1q9.27-3.6,18.37-7.62a.49.49,0,0,1,.39.89h0q-9.12,4-18.41,7.63a.5.5,0,0,1-.63-.28A.48.48,0,0,1,917.12,207.1Z"/><path class="cls-4" d="M944.67,195.3q9-4.23,17.92-8.83a.5.5,0,1,1,.46.88h0q-8.89,4.6-18,8.84a.49.49,0,1,1-.42-.89Z"/><path class="cls-4" d="M971.42,181.8q8.79-4.76,17.4-9.83a.45.45,0,1,1,.46.77q-8.6,5.13-17.39,9.92a.49.49,0,0,1-.67-.2.49.49,0,0,1,.2-.66Z"/><path class="cls-4" d="M997.37,166.8q8.5-5.25,16.79-10.84a.39.39,0,1,1,.43.64q-8.26,5.64-16.77,10.93a.42.42,0,0,1-.59-.14.44.44,0,0,1,.14-.59Z"/><path class="cls-4" d="M1022.38,150.28q8.16-5.76,16.05-11.9a.32.32,0,1,1,.39.5q-7.86,6.19-16,12a.36.36,0,0,1-.51-.09.37.37,0,0,1,.09-.51Z"/><path class="cls-4" d="M1046.23,132.13q7.73-6.34,15.07-13.12a.27.27,0,0,1,.37,0,.25.25,0,0,1,0,.36q-7.32,6.83-15,13.21a.3.3,0,0,1-.42,0,.3.3,0,0,1,0-.43Z"/><path class="cls-4" d="M1068.52,112.11c4.73-4.69,9.32-9.53,13.67-14.58a.16.16,0,0,1,.25.21q-6.48,7.64-13.58,14.7a.24.24,0,0,1-.34,0,.24.24,0,0,1,0-.33Z"/><path class="cls-4" d="M1088.52,89.8a158.16,158.16,0,0,0,10.75-15.56,0,0,0,0,1,.07,0,0,0,0,0,1,0,.06A158.09,158.09,0,0,1,1088.72,90a.13.13,0,0,1-.2-.16Z"/></g><circle class="cls-39" cx="1029.99" cy="144.19" r="13.83"/><circle class="cls-40" cx="1029.29" cy="142.79" r="12.27"/><path class="cls-39" d="M1028.81,150.06c.29,1.22-.73,2.51-2.28,2.88a2.65,2.65,0,0,1-3.34-1.54c-.29-1.22.73-2.51,2.28-2.88A2.65,2.65,0,0,1,1028.81,150.06Z"/><path class="cls-39" d="M1035.38,146.78a2.62,2.62,0,0,0,3.67-.08c1.23-1,1.58-2.61.78-3.58s-2.44-.94-3.67.08S1034.58,145.82,1035.38,146.78Z"/><path class="cls-41" d="M1033.88,152a5.41,5.41,0,0,0,2.8-6.32.85.85,0,0,0-1.19-.53l-8,4a.85.85,0,0,0-.3,1.28A5.42,5.42,0,0,0,1033.88,152Z"/><path class="cls-37" d="M1033,150.19a5.28,5.28,0,0,0-2.35,2.32,5.4,5.4,0,0,0,5.62-2.8A5.22,5.22,0,0,0,1033,150.19Z"/><circle class="cls-42" cx="1023.8" cy="146.69" r="1.86"/><path class="cls-43" d="M1024.3,145.9a.8.8,0,0,1-1.43.71.8.8,0,0,1,.36-1.07A.81.81,0,0,1,1024.3,145.9Z"/><path class="cls-43" d="M1024.82,147a.22.22,0,0,1-.1.3.23.23,0,0,1-.3-.1.22.22,0,0,1,.4-.2Z"/><circle class="cls-42" cx="1035.71" cy="140.76" r="1.86"/><path class="cls-43" d="M1036.21,140a.8.8,0,1,1-1.07-.36A.81.81,0,0,1,1036.21,140Z"/><path class="cls-43" d="M1036.73,141a.22.22,0,0,1-.1.3.23.23,0,0,1-.3-.1.22.22,0,1,1,.4-.2Z"/><path class="cls-43" d="M1035.49,145.16l-8,4a.85.85,0,0,0-.3,1.28l.27.32a48.14,48.14,0,0,0,4.84-2.09,49.24,49.24,0,0,0,4.52-2.55c0-.15-.06-.29-.1-.43A.85.85,0,0,0,1035.49,145.16Z"/><path class="cls-44" d="M1019.54,143.79l-.3-.1a.4.4,0,0,1-.24-.56,4.84,4.84,0,0,1,.64-1,3.91,3.91,0,0,1,2.72-1.35.4.4,0,0,1,.43.4v.32a.4.4,0,0,1-.37.39,2.94,2.94,0,0,0-2.4,1.66A.4.4,0,0,1,1019.54,143.79Z"/><path class="cls-44" d="M1034.6,134.71a3.94,3.94,0,0,0-2.71,1.35.41.41,0,0,0,.06.6l.25.18a.41.41,0,0,0,.54-.05,2.92,2.92,0,0,1,2.77-.92.38.38,0,0,0,.45-.26l.11-.29"/><circle class="cls-37" cx="683.88" cy="235.19" r="10.58"/><path class="cls-38" d="M683.22,230.62a2.75,2.75,0,0,0-3.55,1.67c-.65,1.71.21,3.66,1.48,6.22.29.58.56,1.17.81,1.74.56-.27,1.15-.52,1.75-.76,2.66-1.08,4.59-2,5.23-3.67a2.74,2.74,0,0,0-1.54-3.61,2.86,2.86,0,0,0-2.15.06l-.31.13-.15-.3a2.91,2.91,0,0,0-1.57-1.48"/></g></g></g></svg>